# xmcd
#
# Track frame offsets:
#	150
#	23452
#	49652
#	70755
#	94837
#	119072
#	141380
#	158302
#	179027
#	194355
#
# Disc length: 2895 seconds
#
# Revision: 2
# Processed by: cddbd v1.5.2PL0 Copyright (c) Steve Scherf et al.
# Submitted via: EasyCDDAExtractor 15.3.0.1
#
DISCID=870b4d0a
DTITLE=Emmanuel - Amor Total
DYEAR=1996
DGENRE=Latin
TTITLE0=Amor Total
TTITLE1=Tarumba
TTITLE2=Mi Mujer
TTITLE3=Corazones
TTITLE4=Adios, Mi Sirena, Adios
TTITLE5=La Fuerza De La Vida
TTITLE6=Un Dia, Otro Dia Y Otro
TTITLE7=Fuego Y Miel
TTITLE8=Lo Eres Todo
TTITLE9=Pequeño Gran Chopin
EXTD=
EXTT0=
EXTT1=
EXTT2=
EXTT3=
EXTT4=
EXTT5=
EXTT6=
EXTT7=
EXTT8=
EXTT9=
PLAYORDER=
